<?xml version="1.0" encoding="UTF-8"?>
<svg width="700pt" height="700pt" version="1.1" viewBox="0 0 700 700" xmlns="http://www.w3.org/2000/svg" fill="white">
 <path d="m621.6 260.4-112-112c-11.199-11.199-28-11.199-39.199 0-11.199 11.199-11.199 28 0 39.199l64.398 64.402h-369.6l64.398-64.398c11.199-11.199 11.199-28 0-39.199-11.199-11.199-28-11.199-39.199 0l-112 112c-11.199 11.199-11.199 28 0 39.199l112 112c11.199 11.199 28 11.199 39.199 0 11.199-11.199 11.199-28 0-39.199l-64.398-64.402h369.6l-64.398 64.398c-11.199 11.199-11.199 28 0 39.199 11.199 11.199 28 11.199 39.199 0l112-112c11.199-11.199 11.199-27.996 0-39.199z"/>
</svg>
